<svg width="900" height="560" viewBox="0 0 900 560" fill="none" xmlns="http://www.w3.org/2000/svg">
  <rect width="900" height="560" rx="28" fill="#0F172A"/>
  <text x="64" y="78" fill="#A7F3D0" font-family="Arial, sans-serif" font-size="14" font-weight="700" letter-spacing="2">PUBLIC-SIGNAL UTILITY</text>
  <text x="64" y="122" fill="white" font-family="Arial, sans-serif" font-size="32" font-weight="700">Japan Entry Signal Check</text>
  <text x="64" y="154" fill="#CBD5E1" font-family="Arial, sans-serif" font-size="16">Evidence, self-reported readiness, and unknowns stay separate.</text>
  <circle cx="190" cy="318" r="104" stroke="#334155" stroke-width="20"/>
  <path d="M190 214A104 104 0 1 1 113 390" stroke="#34D399" stroke-width="20" stroke-linecap="round"/>
  <text x="190" y="326" text-anchor="middle" fill="white" font-family="Arial, sans-serif" font-size="54" font-weight="700">72</text>
  <text x="190" y="356" text-anchor="middle" fill="#94A3B8" font-family="Arial, sans-serif" font-size="13" font-weight="700">SIGNAL / 100</text>
  <g font-family="Arial, sans-serif">
    <rect x="356" y="224" width="470" height="64" rx="14" fill="#172554"/><text x="382" y="252" fill="#BFDBFE" font-size="14" font-weight="700">PUBLIC EVIDENCE</text><text x="382" y="274" fill="#CBD5E1" font-size="12">Rank, crawl, schema, registry, and site signals</text><text x="786" y="261" text-anchor="end" fill="#60A5FA" font-size="23" font-weight="700">48</text>
    <rect x="356" y="304" width="470" height="64" rx="14" fill="#064E3B"/><text x="382" y="332" fill="#A7F3D0" font-size="14" font-weight="700">SELF-REPORTED</text><text x="382" y="354" fill="#CBD5E1" font-size="12">Language, payment, fulfilment, support, decision owner</text><text x="786" y="341" text-anchor="end" fill="#34D399" font-size="23" font-weight="700">24</text>
    <rect x="356" y="384" width="470" height="64" rx="14" fill="#451A03"/><text x="382" y="412" fill="#FDE68A" font-size="14" font-weight="700">UNKNOWN</text><text x="382" y="434" fill="#CBD5E1" font-size="12">Actual visits, country share, and revenue remain private</text><text x="786" y="421" text-anchor="end" fill="#FBBF24" font-size="23" font-weight="700">28</text>
  </g>
  <text x="64" y="500" fill="#94A3B8" font-family="Arial, sans-serif" font-size="13">No account required · No private traffic or revenue is inferred.</text>
</svg>
